# xmcd
#
# Track frame offsets: 
#        150
#        11185
#        23026
#        36173
#        48133
#        57221
#        66508
#        80318
#        92374
#        104084
#        114744
#        125299
#        137381
#        151341
#        162113
#        173616
#        182801
#        193648
#        207869
#        218929
#        229339
#        238739
#        249136
#        258549
#        270259
#        283306
#        296422
#        310307
#        323479
#        332601
#        345458
#
# Disc length: 4766 seconds
#
# Revision: 0
# Processed by: cddbd v1.5.2PL0 Copyright (c) Steve Scherf et al.
# Submitted via: ExactAudioCopyFreeDBPlugin 1.0
#
DISCID=b4129c1f
DTITLE=Various Artist - American Soul Connection (1954-1962)
DYEAR=2019
DGENRE=No, thanks.
TTITLE0=Jimmy Ruffin - Don't feel sorry for me
TTITLE1=Ernie K-Doe - Mother-in-law
TTITLE2=Jerry Butler - Find another girl
TTITLE3=Eddie Holland - Why do you want to let me go
TTITLE4=Chris Kenner - I like it like that
TTITLE5=The Top Notes - Hearts of stone
TTITLE6=Ben E. King - Stand by me
TTITLE7=The Mar-Keys - Last night
TTITLE8=Gene, Wendell and the Sweethearts - The roach
TTITLE9=Ruth Brown - Anyone but you
TTITLE10=The Sims Twins - Soothe me
TTITLE11=Freddy King - San-ho-zay
TTITLE12=Don Covay - See about me
TTITLE13=The Temptations - Oh, mother of mine
TTITLE14=The Drifters - Sweets for my sweet
TTITLE15=Ray Charles - Hit the road Jack
TTITLE16=The Impressions - Gypsy woman
TTITLE17=Nina Simone - Gin house blues
TTITLE18=Ray Charles - The danger zone
TTITLE19=The Mar-Keys - Morning after
TTITLE20=Betty O'Brien - She'll be gone
TTITLE21=Jerry Butler - Aware of love
TTITLE22=Patience Valentine - If you don't come (You better call)
TTITLE23=Bobby Bland - Turn on your love light
TTITLE24=Gladys Knight - Letter full of tears
TTITLE25=The Temptations - Your wonderful love
TTITLE26=James Brown and The Famous Flames - Lost someone
TTITLE27=Ray Charles - Unchain my heart
TTITLE28=Arthur Alexander - A shot of rhythm and blues
TTITLE29=Arthur Alexander - You better move on
TTITLE30=The Isley Brothers - Time after time
EXTD=
EXTT0=
EXTT1=
EXTT2=
EXTT3=
EXTT4=
EXTT5=
EXTT6=
EXTT7=
EXTT8=
EXTT9=
EXTT10=
EXTT11=
EXTT12=
EXTT13=
EXTT14=
EXTT15=
EXTT16=
EXTT17=
EXTT18=
EXTT19=
EXTT20=
EXTT21=
EXTT22=
EXTT23=
EXTT24=
EXTT25=
EXTT26=
EXTT27=
EXTT28=
EXTT29=
EXTT30=
PLAYORDER=
